<?xml version="1.0" standalone="no"?>
<!DOCTYPE svg PUBLIC "-//W3C//DTD SVG 20010904//EN"
 "http://www.w3.org/TR/2001/REC-SVG-20010904/DTD/svg10.dtd">
<svg version="1.0" xmlns="http://www.w3.org/2000/svg"
 width="690.000000pt" height="690.000000pt" viewBox="0 0 690.000000 690.000000"
 preserveAspectRatio="xMidYMid meet">
<metadata>
Created by potrace 1.11, written by Peter Selinger 2001-2013
</metadata>
<g transform="translate(0.000000,690.000000) scale(0.100000,-0.100000)"
fill="#000000" stroke="none">
<path d="M2165 5586 c-20 -19 -50 -38 -66 -41 -24 -6 -28 -10 -23 -30 4 -14 0
-33 -10 -47 -37 -52 -7 -65 45 -18 19 16 42 32 52 36 9 3 17 9 17 13 0 5 31
22 69 39 38 17 72 36 75 41 10 15 -29 23 -59 11 -30 -11 -45 -6 -45 16 0 22
-16 17 -55 -20z"/>
<path d="M2264 5490 c-60 -24 -115 -74 -146 -133 -31 -58 -33 -195 -3 -247 80
-141 229 -193 368 -128 31 15 57 31 57 37 0 5 -13 18 -29 27 -52 31 -63 91
-21 114 15 8 27 3 60 -25 23 -19 46 -35 51 -35 33 0 50 145 27 222 -15 50 -88
132 -142 160 -59 30 -157 34 -222 8z"/>
<path d="M3744 4920 c-35 -14 -81 -79 -115 -162 -17 -43 -34 -78 -37 -78 -15
0 -31 41 -32 83 0 50 -8 57 -34 31 -36 -36 -12 -107 47 -140 16 -9 15 -16 -12
-94 -15 -47 -38 -109 -51 -137 l-22 -53 -42 7 c-48 9 -87 9 -110 0 -25 -10
-20 -60 9 -87 20 -19 32 -22 70 -18 25 3 54 13 65 23 17 16 22 15 87 -13 134
-59 186 -62 223 -15 11 14 20 28 20 32 0 3 -28 6 -63 6 -38 0 -92 9 -139 24
l-77 24 33 66 c19 36 46 100 61 142 l27 77 48 4 c82 8 156 82 167 168 12 87
-48 140 -123 110z m71 -40 c16 -52 -50 -176 -109 -204 -21 -10 -40 -16 -42
-13 -9 9 59 179 83 208 28 33 59 38 68 9z m-376 -542 c21 -8 22 -11 10 -22 -8
-8 -23 -17 -35 -20 -28 -8 -70 24 -61 48 7 17 28 16 86 -6z"/>
<path d="M3963 4905 c-51 -31 -83 -80 -83 -128 0 -37 21 -67 46 -67 10 0 14
13 14 47 0 55 33 129 60 138 28 9 57 -10 63 -43 7 -36 -20 -166 -68 -325 -40
-136 -44 -197 -15 -244 47 -77 195 -47 247 50 l18 32 5 -47 c6 -61 29 -88 74
-88 43 0 56 17 22 30 -34 13 -42 63 -27 168 14 97 70 298 112 397 35 83 34 81
8 95 -45 25 -72 -35 -149 -329 -60 -229 -112 -311 -197 -311 -78 0 -82 98 -13
315 42 130 58 231 46 279 -7 29 -52 56 -93 56 -15 0 -47 -11 -70 -25z"/>
<path d="M4603 4909 c-55 -27 -93 -83 -93 -137 0 -31 5 -44 19 -52 34 -18 41
-11 41 35 0 81 50 156 93 139 25 -9 28 -30 34 -209 l5 -170 -104 -119 c-106
-122 -135 -163 -123 -174 8 -8 123 113 188 197 l41 53 12 -68 c14 -86 36 -139
62 -153 38 -20 88 -13 119 17 27 25 90 124 106 165 14 38 -13 14 -52 -46 -50
-78 -83 -110 -108 -105 -29 5 -52 67 -63 172 l-10 98 69 91 c125 167 158 235
132 276 -7 10 -17 -3 -41 -50 -18 -35 -60 -106 -94 -157 l-61 -94 -6 114 c-7
126 -23 173 -65 188 -37 14 -54 12 -101 -11z"/>
<path d="M5112 4909 c-56 -28 -92 -81 -92 -136 0 -32 5 -45 19 -53 34 -18 41
-11 41 38 0 57 31 128 59 137 29 9 58 -10 65 -42 7 -34 -21 -166 -69 -326 -45
-152 -47 -213 -6 -256 25 -26 36 -31 76 -31 64 0 112 25 149 78 l31 44 5 -46
c6 -59 30 -86 74 -86 43 0 56 17 22 30 -34 13 -42 63 -27 168 14 98 70 298
113 401 30 71 30 75 13 87 -26 19 -32 18 -50 -10 -27 -41 -53 -118 -100 -297
-65 -248 -115 -329 -202 -329 -78 0 -82 98 -12 315 63 200 64 296 2 324 -35
16 -63 14 -111 -10z"/>
<path d="M5762 4915 c-61 -17 -92 -32 -92 -44 0 -19 33 -20 68 -2 85 43 85 44
27 -98 -51 -123 -175 -473 -175 -491 0 -15 31 -40 49 -40 15 0 25 25 55 133
20 72 39 138 41 145 3 7 25 -27 51 -75 67 -129 150 -233 185 -233 23 0 49 10
49 20 0 4 -30 39 -67 77 -39 40 -92 110 -125 166 -32 53 -58 99 -58 102 0 3
17 5 38 5 20 0 71 10 112 22 118 35 175 107 155 197 -22 100 -171 156 -313
116z m212 -40 c16 -11 30 -33 37 -58 15 -57 -11 -121 -66 -159 -39 -27 -168
-68 -179 -57 -6 6 50 177 83 253 21 48 22 49 60 43 21 -2 50 -12 65 -22z"/>
<path d="M6178 4909 c-51 -26 -88 -83 -88 -134 0 -44 13 -65 42 -65 15 0 18 8
18 45 0 87 44 155 91 140 44 -14 44 -65 0 -225 -27 -97 -28 -169 -1 -203 45
-57 134 -42 205 34 25 27 45 45 45 41 0 -27 -54 -220 -71 -255 -43 -85 -108
-128 -162 -108 -27 10 -34 28 -39 91 l-3 35 -22 -22 c-29 -29 -30 -76 -3 -103
28 -28 160 -29 206 -1 75 46 104 109 183 392 33 118 70 238 82 268 17 39 20
57 12 70 -32 51 -83 1 -119 -118 -40 -132 -61 -182 -102 -236 -61 -82 -135
-104 -161 -49 -16 37 -14 61 19 189 39 151 39 176 -1 209 -37 31 -79 33 -131
5z"/>
<path d="M2280 4870 c-47 -5 -139 -14 -205 -20 -161 -15 -454 -68 -595 -107
-30 -8 -68 -18 -85 -23 -113 -30 -215 -79 -238 -114 -10 -14 -17 -42 -17 -61
0 -33 -14 -73 -29 -85 -4 -3 -34 -39 -68 -80 -103 -127 -88 -122 -198 -66 -82
42 -99 48 -132 41 -99 -18 -141 -52 -303 -240 -52 -60 -139 -155 -192 -210
-104 -108 -127 -136 -145 -175 -45 -99 -25 -134 162 -293 94 -79 180 -125 250
-133 93 -11 227 39 312 115 15 14 64 57 108 95 147 127 240 210 291 262 56 58
132 166 140 201 14 55 -44 126 -143 175 -35 17 -63 34 -63 37 0 4 18 27 41 51
22 25 61 78 87 118 26 40 54 82 62 92 19 25 100 37 293 45 168 7 163 11 121
-76 -91 -188 -180 -372 -201 -419 -14 -30 -40 -88 -59 -127 -19 -40 -46 -98
-60 -130 -30 -67 -163 -396 -175 -433 -4 -14 -35 -104 -69 -200 -88 -253 -119
-385 -146 -611 -6 -48 -3 -63 16 -96 23 -42 72 -73 115 -73 13 0 37 11 53 25
24 20 32 38 42 92 24 128 78 247 201 441 75 119 292 443 357 533 26 37 67 95
91 130 25 35 47 66 50 69 10 8 123 167 181 255 29 44 56 82 60 85 9 7 145 211
170 255 24 43 26 95 4 136 -8 17 -14 42 -12 57 l3 27 110 -2 c61 -2 151 -7
200 -13 50 -5 158 -12 240 -16 147 -6 151 -6 185 18 48 32 166 191 180 242 15
54 16 164 2 178 -6 6 -33 15 -59 20 -62 13 -822 19 -933 8z m-1071 -439 c10
-7 1 -23 -40 -73 -30 -36 -67 -81 -82 -102 -28 -36 -50 -45 -62 -25 -5 8 72
110 105 139 3 3 16 20 29 38 24 34 28 36 50 23z"/>
<path d="M2705 3854 c-177 -43 -255 -83 -355 -184 -135 -136 -190 -260 -198
-446 -5 -133 14 -216 83 -358 42 -88 165 -274 223 -339 16 -18 51 -57 78 -87
27 -30 84 -88 127 -129 42 -41 77 -80 77 -88 0 -8 -13 -13 -32 -14 -77 -3
-138 -20 -138 -39 0 -16 38 -27 143 -40 135 -17 337 7 337 40 0 19 -66 38
-137 39 -24 1 -43 5 -43 9 0 5 43 51 95 103 52 52 116 120 141 151 25 32 51
63 58 70 42 43 163 228 205 313 59 119 77 172 91 262 61 373 -241 724 -635
738 -55 2 -109 2 -120 -1z m257 -193 c157 -54 262 -159 315 -314 60 -177 6
-397 -126 -520 -254 -234 -642 -160 -794 153 -42 85 -42 85 -42 200 0 166 42
267 152 370 134 126 326 169 495 111z"/>
<path d="M2710 3515 c-188 -61 -284 -290 -195 -464 127 -252 484 -250 605 4
25 52 30 75 30 137 0 69 -12 131 -30 151 -4 5 -71 -23 -148 -62 l-140 -70 49
105 c27 57 58 122 68 143 l20 38 -27 13 c-42 19 -179 22 -232 5z"/>
<path d="M0 3505 c0 -49 8 -56 29 -24 10 18 11 26 0 45 -19 36 -29 29 -29 -21z"/>
<path d="M5745 3416 c-49 -15 -112 -55 -165 -103 -45 -40 -45 -39 -25 37 8 30
12 56 10 58 -5 6 -294 6 -300 0 -5 -5 -56 -165 -86 -273 -31 -108 -35 -123
-67 -230 -70 -234 -142 -483 -142 -491 0 -5 68 -9 150 -9 l150 0 34 105 c19
58 64 204 101 325 36 121 74 235 83 254 27 53 117 146 162 166 38 17 45 17 69
4 19 -11 27 -24 29 -49 3 -30 -2 -39 -35 -67 -49 -41 -36 -58 45 -58 126 1
200 46 227 138 43 144 -81 243 -240 193z"/>
<path d="M3841 3410 c-3 -3 -30 -77 -58 -165 -201 -616 -197 -604 -168 -683
23 -60 49 -89 105 -114 73 -33 100 -39 200 -39 142 1 245 36 358 123 l62 48 0
-51 c0 -45 4 -55 34 -85 35 -35 52 -39 145 -35 85 3 212 64 306 145 29 25 37
37 29 46 -8 8 -27 3 -71 -19 -33 -17 -68 -31 -76 -31 -20 0 -47 38 -47 66 0
12 25 102 55 200 31 99 71 229 90 289 19 61 48 153 64 205 17 52 28 96 26 98
-6 6 -296 5 -302 -1 -19 -19 -185 -518 -213 -642 -26 -112 -26 -112 -86 -157
-80 -62 -130 -81 -209 -82 -93 -1 -129 15 -156 70 -30 62 -25 85 96 454 57
173 107 326 110 340 l6 25 -146 0 c-81 0 -150 -2 -154 -5z"/>
<path d="M6389 3406 c-101 -27 -208 -114 -256 -210 -30 -60 -41 -156 -24 -209
18 -54 85 -116 194 -181 162 -97 222 -182 197 -278 -24 -90 -117 -148 -235
-148 -115 1 -182 43 -206 133 -15 57 2 135 42 194 l32 46 -34 -7 c-49 -9 -100
-38 -123 -70 -15 -20 -22 -46 -24 -101 -5 -88 18 -148 74 -190 60 -46 95 -55
216 -55 104 0 118 2 174 29 66 31 124 83 150 133 9 18 19 60 22 95 9 120 -46
200 -198 287 -104 59 -165 108 -185 146 -35 67 -6 172 72 260 49 55 116 90
187 97 46 5 57 2 75 -16 27 -27 23 -55 -25 -189 -45 -124 -44 -192 4 -192 7 0
32 39 55 88 39 81 42 94 45 185 4 91 2 100 -19 123 -40 42 -121 54 -210 30z"/>
<path d="M295 3292 c-81 -18 -67 -112 17 -112 41 0 71 28 66 61 -4 27 -54 58
-83 51z"/>
<path d="M1723 883 c950 -2 2504 -2 3455 0 950 1 172 2 -1728 2 -1900 0 -2678
-1 -1727 -2z"/>
</g>
</svg>
